<?xml version="1.0" standalone="no"?>
<!DOCTYPE svg PUBLIC "-//W3C//DTD SVG 20010904//EN"
 "http://www.w3.org/TR/2001/REC-SVG-20010904/DTD/svg10.dtd">
<svg version="1.0" xmlns="http://www.w3.org/2000/svg"
 width="500.000000pt" height="500.000000pt" viewBox="0 0 500.000000 500.000000"
 preserveAspectRatio="xMidYMid meet">
<metadata>
Created by potrace 1.11, written by Peter Selinger 2001-2013
</metadata>
<g transform="translate(0.000000,500.000000) scale(0.100000,-0.100000)"
fill="#000000" stroke="none">
<path d="M0 2500 l0 -2500 2500 0 2500 0 0 2500 0 2500 -2500 0 -2500 0 0
-2500z m1260 981 c0 -5 -17 -11 -38 -15 -52 -8 -78 -36 -91 -96 -7 -31 -11
-183 -11 -388 0 -306 -2 -341 -19 -378 -19 -43 -84 -104 -140 -133 l-33 -18
33 -13 c48 -20 119 -88 140 -135 17 -36 19 -73 19 -392 0 -298 2 -359 16 -392
17 -44 46 -68 89 -73 16 -2 31 -9 33 -17 4 -12 -9 -13 -74 -8 -141 9 -230 59
-271 152 -15 35 -18 85 -23 410 -6 413 -5 409 -75 442 -44 21 -44 38 -1 58 71
34 70 28 76 440 5 326 7 375 23 410 33 73 98 124 184 144 50 12 163 13 163 2z
m2728 -21 c53 -23 104 -71 125 -119 8 -17 13 -148 17 -396 5 -348 6 -372 25
-405 11 -19 37 -43 58 -53 42 -21 48 -44 13 -53 -37 -9 -74 -54 -85 -104 -6
-26 -11 -186 -11 -381 l0 -337 -28 -53 c-45 -86 -155 -139 -290 -139 -47 0
-57 22 -11 28 39 5 70 24 87 57 14 26 17 83 22 411 l5 382 26 37 c31 42 123
115 148 115 9 0 -4 12 -29 26 -48 27 -114 86 -133 119 -8 14 -14 136 -17 400
-5 359 -6 382 -25 415 -16 26 -32 39 -68 50 -26 8 -47 19 -47 24 0 17 164 -1
218 -24z m-1343 -255 c96 -25 169 -63 218 -113 99 -101 127 -254 60 -332 -103
-122 -283 -68 -283 85 0 67 52 132 112 141 43 7 45 13 19 70 -62 136 -300 174
-414 66 -89 -84 -137 -332 -123 -632 12 -269 72 -431 188 -507 38 -26 49 -28
137 -28 83 1 104 4 154 27 108 51 205 167 237 288 7 25 15 81 19 125 5 62 9
80 21 80 12 0 14 -12 12 -65 -7 -149 -57 -274 -145 -368 -85 -89 -180 -133
-322 -147 -213 -20 -448 122 -554 335 -57 116 -74 206 -68 345 9 189 71 336
194 462 77 78 167 137 247 163 76 24 209 26 291 5z"/>
</g>
</svg>
